<svg version="1.2" xmlns="http://www.w3.org/2000/svg" viewBox="0 0 328 40" width="328" height="40">
	<title>image</title>
	<style>
		.s0 { fill: #ffffff } 
		.s1 { fill: #000000 } 
	</style>
	<path id="Layer" class="s0" d="m0 39.6v-39.2h7.9v32.5h8v6.7z"/>
	<path id="Layer" class="s0" d="m18.2 39.6v-39.2h15.7v7.5h-7.7v7.7h7.4v7.4h-7.4v9h8.2v7.6z"/>
	<path id="Layer" class="s0" d="m46.3 40q-5.3 0-7.7-2.7-2.4-2.7-2.4-8.5v-3.8h7.8v4.9q0 1.3 0.4 2.1 0.4 0.8 1.4 0.8 1.1 0 1.5-0.7 0.4-0.6 0.4-2 0-1.8-0.3-3-0.4-1.3-1.3-2.3-0.9-1.2-2.4-2.6l-3.5-3.4q-4-3.7-4-8.5 0-5 2.3-7.7 2.4-2.6 6.8-2.6 5.4 0 7.6 2.9 2.3 2.9 2.3 8.7h-8v-2.7q0-0.8-0.4-1.2-0.5-0.5-1.3-0.5-0.9 0-1.3 0.6-0.5 0.5-0.5 1.3 0 0.8 0.5 1.8 0.4 1 1.7 2.2l4.6 4.4q1.3 1.2 2.5 2.7 1.1 1.4 1.8 3.3 0.7 1.9 0.7 4.7 0 5.5-2.1 8.7-2 3.1-7.1 3.1z"/>
	<path id="Layer" fill-rule="evenodd" class="s0" d="m68.8 39.6v-39.2h10.4q3.3 0 5.2 1.4 1.9 1.5 2.7 4.1 0.8 2.7 0.8 6.4 0 3.6-0.6 6.2-0.7 2.7-2.5 4.1-1.8 1.5-5 1.5h-3.2v15.5zm7.7-22.6h0.4q2.2 0 2.7-1.2 0.5-1.2 0.5-3.6 0-2.2-0.5-3.4-0.5-1.3-2.2-1.3h-0.9z"/>
	<path id="Layer" class="s0" d="m90.4 39.6v-39.2h15.8v7.5h-7.8v7.7h7.4v7.4h-7.4v9h8.3v7.6z"/>
	<path id="Layer" class="s0" d="m112.7 39.6v-31.7h-4.7v-7.5h17.2v7.5h-4.7v31.7z"/>
	<path id="Layer" class="s0" d="m127 39.6v-39.2h7.6v39.2z"/>
	<path id="Layer" class="s0" d="m141.1 39.6v-31.7h-4.7v-7.5h17.2v7.5h-4.6v31.7z"/>
	<path id="Layer" class="s0" d="m165.1 40q-5.3 0-7.7-2.7-2.4-2.7-2.4-8.5v-3.8h7.8v4.9q0 1.3 0.4 2.1 0.4 0.8 1.4 0.8 1.1 0 1.5-0.7 0.4-0.6 0.4-2 0-1.8-0.3-3-0.4-1.3-1.3-2.3-0.9-1.2-2.4-2.6l-3.5-3.4q-4-3.7-4-8.5 0-5 2.3-7.7 2.4-2.6 6.8-2.6 5.4 0 7.6 2.9 2.3 2.9 2.3 8.7h-8v-2.7q0-0.8-0.4-1.2-0.5-0.5-1.3-0.5-0.9 0-1.4 0.6-0.4 0.5-0.4 1.3 0 0.8 0.5 1.8 0.4 1 1.7 2.2l4.6 4.4q1.3 1.2 2.5 2.7 1.1 1.4 1.8 3.3 0.7 1.9 0.7 4.7 0 5.5-2.1 8.7-2 3.1-7.1 3.1z"/>
	<path id="Layer" fill-rule="evenodd" class="s0" d="m187.6 39.6v-39.2h10.4q3.3 0 5.2 1.4 1.9 1.5 2.7 4.1 0.8 2.7 0.8 6.4 0 3.6-0.7 6.2-0.6 2.7-2.4 4.1-1.8 1.5-5.1 1.5h-3.1v15.5zm7.7-22.6h0.4q2.2 0 2.7-1.2 0.5-1.2 0.5-3.6 0-2.2-0.5-3.4-0.5-1.3-2.2-1.3h-0.9z"/>
	<path id="Layer" class="s0" d="m209.2 39.6v-39.2h7.9v32.5h8.1v6.7z"/>
	<path id="Layer" fill-rule="evenodd" class="s0" d="m226.3 39.6l3.8-39.2h13.4l3.7 39.2h-7.4l-0.6-6.3h-4.7l-0.5 6.3zm8.7-12.6h3.5l-1.7-19.9h-0.3z"/>
	<path id="Layer" class="s0" d="m252.4 39.6v-31.7h-4.7v-7.5h17.2v7.5h-4.7v31.7z"/>
	<path id="Layer" class="s0" d="m276.4 40q-5.4 0-7.7-2.7-2.4-2.7-2.4-8.5v-3.8h7.8v4.9q0 1.3 0.4 2.1 0.4 0.8 1.4 0.8 1.1 0 1.5-0.7 0.4-0.6 0.4-2 0-1.8-0.3-3-0.4-1.3-1.3-2.3-0.9-1.2-2.4-2.6l-3.6-3.4q-3.9-3.7-3.9-8.5 0-5 2.3-7.7 2.4-2.6 6.8-2.6 5.4 0 7.6 2.9 2.3 2.9 2.3 8.7h-8v-2.7q0-0.8-0.4-1.2-0.5-0.5-1.3-0.5-0.9 0-1.4 0.6-0.4 0.5-0.4 1.3 0 0.8 0.5 1.8 0.4 1 1.7 2.2l4.6 4.4q1.3 1.2 2.5 2.7 1.1 1.4 1.8 3.3 0.7 1.9 0.7 4.7 0 5.5-2.1 8.7-2 3.1-7.1 3.1z"/>
	<path id="Layer" class="s0" d="m327.8 22.8c0 9.3-7.8 16.8-17.5 16.8-9.6 0-17.4-7.5-17.4-16.8 0-9.3 7.8-16.8 17.4-16.8 9.7 0 17.5 7.5 17.5 16.8z"/>
	<path id="Layer" fill-rule="evenodd" class="s1" d="m292.9 22.8c0-9.3 7.8-16.8 17.4-16.8 9.7 0 17.5 7.5 17.5 16.8 0 9.3-7.8 16.8-17.5 16.8-9.6 0-17.4-7.5-17.4-16.8zm17.4 14.3c8.4 0 14.9-6.5 14.9-14.3 0-7.8-6.5-14.3-14.9-14.3-8.3 0-14.9 6.5-14.9 14.3 0 7.8 6.6 14.3 14.9 14.3z"/>
	<path id="Layer" class="s0" d="m322.1 22.8c0 6.5-5.3 11.8-11.8 11.8-6.5 0-11.7-5.3-11.7-11.8 0-6.5 5.2-11.7 11.7-11.7 6.5 0 11.8 5.2 11.8 11.7z"/>
	<path id="Layer" fill-rule="evenodd" class="s1" d="m298.6 22.8c0-6.5 5.2-11.7 11.7-11.7 6.5 0 11.8 5.2 11.8 11.7 0 6.5-5.3 11.8-11.8 11.8-6.5 0-11.7-5.3-11.7-11.8zm11.7 9.2c5.1 0 9.2-4.1 9.2-9.2 0-5.1-4.1-9.2-9.2-9.2-5.1 0-9.2 4.1-9.2 9.2 0 5.1 4.1 9.2 9.2 9.2z"/>
</svg>